<?xml version="1.0" encoding="utf-8"?>
<!DOCTYPE svg PUBLIC "-//W3C//DTD SVG 1.1//EN" "http://www.w3.org/Graphics/SVG/1.1/DTD/svg11.dtd"><svg version='1.1' xmlns='http://www.w3.org/2000/svg' width='1000px' height='1000px' viewBox='0 0 100 100'><g class="drawcontainer"><rect x="0" y="0" width="100%" height="100%" stroke="none" fill="white"></rect><svg class="svgcontainer" width="90" height="90" x="5" y="5" viewBox="0 0 1000 1000" preserveAspectRatio="none"><g class="container"><rect x="0" y="0" width="100%" height="100%" stroke="none" fill="white"></rect><path d="" class="content-lines s_0 idy_3" stroke-width="2.5px" stroke="#094b09" stroke-linecap="round"></path><path d="" class="content-lines s_0_01 idy_3" stroke-width="2.5px" stroke="#094b09" stroke-linecap="round"></path><path d="" class="content-lines s_0_02 idy_3" stroke-width="2.5px" stroke="#094b09" stroke-linecap="round"></path><path d="" class="content-lines s_0_03 idy_3" stroke-width="2.5px" stroke="#094b09" stroke-linecap="round"></path><path d="" class="content-lines s_0_05 idy_3" stroke-width="2.5px" stroke="#094b09" stroke-linecap="round"></path><path d="" class="content-lines s_1 idy_3" stroke-width="2.5px" stroke="#094b09" stroke-linecap="round"></path><path d="M0 1000 L998.914607365525 0.012620844586990643" class="content-lines s_2 idy_3" stroke-width="2.5px" stroke="#094b09" stroke-linecap="round"></path></g></svg></g><svg width="100" height="5" x="0" y="0" viewBox="0 0 100 5" preserveAspectRatio="none"><polygon points="5,0 95,0 100,5 0,5" stroke="none" style="fill: rgb(244, 244, 244);"></polygon></svg><svg width="5" height="100" x="95" y="0" viewBox="0 0 5 100" preserveAspectRatio="none"><polygon points="0,0 5,5 5,95 0,100" stroke="none" style="fill: rgb(244, 244, 244);"></polygon></svg><svg width="100" height="5" x="0" y="95" viewBox="0 0 100 5" preserveAspectRatio="none"><polygon points="0,0 100,0 95,5 5,5" stroke="none" style="fill: rgb(244, 244, 244);"></polygon></svg><svg width="5" height="100" x="0" y="0" viewBox="0 0 5 100" preserveAspectRatio="none"><polygon points="5,0 5,100 0,95 0,5" stroke="#f4f4f4" stroke-width="0px" style="fill: rgb(244, 244, 244);"></polygon></svg><svg class="axis left-axis" width="5" height="90" x="0" y="5" viewBox="0 0 20 500" preserveAspectRatio="none"><g transform="translate(0,500)rotate(-90)"><line x1="50" y1="15" x2="50" y2="20" stroke-width="0.5" stroke="black"></line><text x="50" y="12" text-anchor="middle" font-family="sans-serif" font-size="6.5pt">7.9 K</text><line x1="100" y1="15" x2="100" y2="20" stroke-width="0.5" stroke="black"></line><text x="100" y="12" text-anchor="middle" font-family="sans-serif" font-size="6.5pt">15.8 K</text><line x1="150" y1="15" x2="150" y2="20" stroke-width="0.5" stroke="black"></line><text x="150" y="12" text-anchor="middle" font-family="sans-serif" font-size="6.5pt">23.8 K</text><line x1="200" y1="15" x2="200" y2="20" stroke-width="0.5" stroke="black"></line><text x="200" y="12" text-anchor="middle" font-family="sans-serif" font-size="6.5pt">31.7 K</text><line x1="250" y1="15" x2="250" y2="20" stroke-width="0.5" stroke="black"></line><text x="250" y="12" text-anchor="middle" font-family="sans-serif" font-size="6.5pt">39.6 K</text><line x1="300" y1="15" x2="300" y2="20" stroke-width="0.5" stroke="black"></line><text x="300" y="12" text-anchor="middle" font-family="sans-serif" font-size="6.5pt">47.5 K</text><line x1="350" y1="15" x2="350" y2="20" stroke-width="0.5" stroke="black"></line><text x="350" y="12" text-anchor="middle" font-family="sans-serif" font-size="6.5pt">55.5 K</text><line x1="400" y1="15" x2="400" y2="20" stroke-width="0.5" stroke="black"></line><text x="400" y="12" text-anchor="middle" font-family="sans-serif" font-size="6.5pt">63.4 K</text><line x1="450" y1="15" x2="450" y2="20" stroke-width="0.5" stroke="black"></line><text x="450" y="12" text-anchor="middle" font-family="sans-serif" font-size="6.5pt">71.3 K</text></g></svg><svg class="axis bottom-axis" width="90" height="5" x="5" y="95" viewBox="0 0 500 20" preserveAspectRatio="none"><line x1="50" y1="0" x2="50" y2="5" stroke-width="0.5" stroke="black"></line><text x="50" y="15" text-anchor="middle" font-family="sans-serif" font-size="6.5pt">7.9 K</text><line x1="100" y1="0" x2="100" y2="5" stroke-width="0.5" stroke="black"></line><text x="100" y="15" text-anchor="middle" font-family="sans-serif" font-size="6.5pt">15.8 K</text><line x1="150" y1="0" x2="150" y2="5" stroke-width="0.5" stroke="black"></line><text x="150" y="15" text-anchor="middle" font-family="sans-serif" font-size="6.5pt">23.8 K</text><line x1="200" y1="0" x2="200" y2="5" stroke-width="0.5" stroke="black"></line><text x="200" y="15" text-anchor="middle" font-family="sans-serif" font-size="6.5pt">31.7 K</text><line x1="250" y1="0" x2="250" y2="5" stroke-width="0.5" stroke="black"></line><text x="250" y="15" text-anchor="middle" font-family="sans-serif" font-size="6.5pt">39.6 K</text><line x1="300" y1="0" x2="300" y2="5" stroke-width="0.5" stroke="black"></line><text x="300" y="15" text-anchor="middle" font-family="sans-serif" font-size="6.5pt">47.5 K</text><line x1="350" y1="0" x2="350" y2="5" stroke-width="0.5" stroke="black"></line><text x="350" y="15" text-anchor="middle" font-family="sans-serif" font-size="6.5pt">55.5 K</text><line x1="400" y1="0" x2="400" y2="5" stroke-width="0.5" stroke="black"></line><text x="400" y="15" text-anchor="middle" font-family="sans-serif" font-size="6.5pt">63.4 K</text><line x1="450" y1="0" x2="450" y2="5" stroke-width="0.5" stroke="black"></line><text x="450" y="15" text-anchor="middle" font-family="sans-serif" font-size="6.5pt">71.3 K</text></svg><svg class="top-axis axis" width="90" height="5" x="5" y="0" viewBox="0 0 500 20" preserveAspectRatio="none"><text x="250" y="7.5" font-size="6pt" font-family="sans-serif" font-style="italic" text-anchor="middle">Cflag_c131</text><svg x="0" y="0" width="500" height="100%"><text x="250" y="17" text-anchor="middle" font-family="sans-serif" font-size="6pt">CrCflag_c131</text></svg></svg><svg class="right-axis" width="5" height="90" x="95" y="5" viewBox="0 0 20 500" preserveAspectRatio="none"><g transform="translate(20)rotate(90)"><text x="250" y="7.5" font-size="6pt" font-family="sans-serif" font-style="italic" text-anchor="middle">2_Cflag_c131</text><svg x="0" y="0" width="500" height="100%"><text x="250" y="17" text-anchor="middle" font-family="sans-serif" font-size="6pt">CrCflag_c131</text></svg></g></svg></svg>