<?xml version="1.0" encoding="utf-8"?>
<!DOCTYPE svg PUBLIC "-//W3C//DTD SVG 1.1//EN" "http://www.w3.org/Graphics/SVG/1.1/DTD/svg11.dtd"><svg version='1.1' xmlns='http://www.w3.org/2000/svg' width='1000px' height='1000px' viewBox='0 0 100 100'><g class="drawcontainer"><rect x="0" y="0" width="100%" height="100%" stroke="none" fill="white"></rect><svg class="svgcontainer" width="90" height="90" x="5" y="5" viewBox="0 0 1000 1000" preserveAspectRatio="none"><g class="container"><rect x="0" y="0" width="100%" height="100%" stroke="none" fill="white"></rect><line x1="293.2680231097714" y1="1000" x2="293.2680231097714" y2="0" class="break-lines" stroke-width="0.6666666666666666" stroke="#7c7c7c" style="stroke-dasharray: 3, 3;"></line><line x1="0" y1="706.7319768902287" x2="1000" y2="706.7319768902287" class="break-lines" stroke-width="0.6666666666666666" stroke="#7c7c7c" style="stroke-dasharray: 3, 3;"></line><path d="" class="content-lines s_0 idy_3" stroke-width="2.5px" stroke="#094b09" stroke-linecap="round"></path><path d="" class="content-lines s_0_01 idy_3" stroke-width="2.5px" stroke="#094b09" stroke-linecap="round"></path><path d="" class="content-lines s_0_02 idy_3" stroke-width="2.5px" stroke="#094b09" stroke-linecap="round"></path><path d="" class="content-lines s_0_03 idy_3" stroke-width="2.5px" stroke="#094b09" stroke-linecap="round"></path><path d="" class="content-lines s_0_05 idy_3" stroke-width="2.5px" stroke="#094b09" stroke-linecap="round"></path><path d="" class="content-lines s_1 idy_3" stroke-width="2.5px" stroke="#094b09" stroke-linecap="round"></path><path d="M293.3386711881437 706.6613288118563 L999.9843004270283 0.015699572971698217 M0.07064807837226827 999.9293519216277 L293.23662396382815 706.7633760361718" class="content-lines s_2 idy_3" stroke-width="2.5px" stroke="#094b09" stroke-linecap="round"></path></g></svg></g><svg width="100" height="5" x="0" y="0" viewBox="0 0 100 5" preserveAspectRatio="none"><polygon points="5,0 95,0 100,5 0,5" stroke="none" style="fill: rgb(244, 244, 244);"></polygon></svg><svg width="5" height="100" x="95" y="0" viewBox="0 0 5 100" preserveAspectRatio="none"><polygon points="0,0 5,5 5,95 0,100" stroke="none" style="fill: rgb(244, 244, 244);"></polygon></svg><svg width="100" height="5" x="0" y="95" viewBox="0 0 100 5" preserveAspectRatio="none"><polygon points="0,0 100,0 95,5 5,5" stroke="none" style="fill: rgb(244, 244, 244);"></polygon></svg><svg width="5" height="100" x="0" y="0" viewBox="0 0 5 100" preserveAspectRatio="none"><polygon points="5,0 5,100 0,95 0,5" stroke="#f4f4f4" stroke-width="0px" style="fill: rgb(244, 244, 244);"></polygon></svg><svg class="axis left-axis" width="5" height="90" x="0" y="5" viewBox="0 0 20 500" preserveAspectRatio="none"><g transform="translate(0,500)rotate(-90)"><line x1="50" y1="15" x2="50" y2="20" stroke-width="0.5" stroke="black"></line><text x="50" y="12" text-anchor="middle" font-family="sans-serif" font-size="6.5pt">12.7 K</text><line x1="100" y1="15" x2="100" y2="20" stroke-width="0.5" stroke="black"></line><text x="100" y="12" text-anchor="middle" font-family="sans-serif" font-size="6.5pt">25.5 K</text><line x1="150" y1="15" x2="150" y2="20" stroke-width="0.5" stroke="black"></line><text x="150" y="12" text-anchor="middle" font-family="sans-serif" font-size="6.5pt">38.2 K</text><line x1="200" y1="15" x2="200" y2="20" stroke-width="0.5" stroke="black"></line><text x="200" y="12" text-anchor="middle" font-family="sans-serif" font-size="6.5pt">51 K</text><line x1="250" y1="15" x2="250" y2="20" stroke-width="0.5" stroke="black"></line><text x="250" y="12" text-anchor="middle" font-family="sans-serif" font-size="6.5pt">63.7 K</text><line x1="300" y1="15" x2="300" y2="20" stroke-width="0.5" stroke="black"></line><text x="300" y="12" text-anchor="middle" font-family="sans-serif" font-size="6.5pt">76.4 K</text><line x1="350" y1="15" x2="350" y2="20" stroke-width="0.5" stroke="black"></line><text x="350" y="12" text-anchor="middle" font-family="sans-serif" font-size="6.5pt">89.2 K</text><line x1="400" y1="15" x2="400" y2="20" stroke-width="0.5" stroke="black"></line><text x="400" y="12" text-anchor="middle" font-family="sans-serif" font-size="6.5pt">101.9 K</text><line x1="450" y1="15" x2="450" y2="20" stroke-width="0.5" stroke="black"></line><text x="450" y="12" text-anchor="middle" font-family="sans-serif" font-size="6.5pt">114.7 K</text></g></svg><svg class="axis bottom-axis" width="90" height="5" x="5" y="95" viewBox="0 0 500 20" preserveAspectRatio="none"><line x1="50" y1="0" x2="50" y2="5" stroke-width="0.5" stroke="black"></line><text x="50" y="15" text-anchor="middle" font-family="sans-serif" font-size="6.5pt">12.7 K</text><line x1="100" y1="0" x2="100" y2="5" stroke-width="0.5" stroke="black"></line><text x="100" y="15" text-anchor="middle" font-family="sans-serif" font-size="6.5pt">25.5 K</text><line x1="150" y1="0" x2="150" y2="5" stroke-width="0.5" stroke="black"></line><text x="150" y="15" text-anchor="middle" font-family="sans-serif" font-size="6.5pt">38.2 K</text><line x1="200" y1="0" x2="200" y2="5" stroke-width="0.5" stroke="black"></line><text x="200" y="15" text-anchor="middle" font-family="sans-serif" font-size="6.5pt">51 K</text><line x1="250" y1="0" x2="250" y2="5" stroke-width="0.5" stroke="black"></line><text x="250" y="15" text-anchor="middle" font-family="sans-serif" font-size="6.5pt">63.7 K</text><line x1="300" y1="0" x2="300" y2="5" stroke-width="0.5" stroke="black"></line><text x="300" y="15" text-anchor="middle" font-family="sans-serif" font-size="6.5pt">76.4 K</text><line x1="350" y1="0" x2="350" y2="5" stroke-width="0.5" stroke="black"></line><text x="350" y="15" text-anchor="middle" font-family="sans-serif" font-size="6.5pt">89.2 K</text><line x1="400" y1="0" x2="400" y2="5" stroke-width="0.5" stroke="black"></line><text x="400" y="15" text-anchor="middle" font-family="sans-serif" font-size="6.5pt">101.9 K</text><line x1="450" y1="0" x2="450" y2="5" stroke-width="0.5" stroke="black"></line><text x="450" y="15" text-anchor="middle" font-family="sans-serif" font-size="6.5pt">114.7 K</text></svg><svg class="top-axis axis" width="90" height="5" x="5" y="0" viewBox="0 0 500 20" preserveAspectRatio="none"><text x="250" y="7.5" font-size="6pt" font-family="sans-serif" font-style="italic" text-anchor="middle">foo</text><svg x="0" y="0" width="146.6340115548857" height="100%"><text x="73.31700577744284" y="17" text-anchor="middle" font-family="sans-serif" font-size="6pt">a7f4301d-6b16-487d-9df3-181067d3...</text></svg><svg x="146.6340115548857" y="0" width="353.36598844511434" height="100%"><text x="176.68299422255717" y="17" text-anchor="middle" font-family="sans-serif" font-size="6pt">3c6a1895-c2b8-4b37-8e3b-eeb2177a2ef5</text></svg><line x1="146.6340115548857" x2="146.6340115548857" y1="12" y2="20" stroke="black" stroke-width="0.5"></line></svg><svg class="right-axis" width="5" height="90" x="95" y="5" viewBox="0 0 20 500" preserveAspectRatio="none"><g transform="translate(20)rotate(90)"><text x="250" y="7.5" font-size="6pt" font-family="sans-serif" font-style="italic" text-anchor="middle">2_foo</text><svg x="353.36598844511434" y="0" width="146.63401155488566" height="100%"><text x="73.31700577744283" y="17" text-anchor="middle" font-family="sans-serif" font-size="6pt">a7f4301d-6b16-487d-9df3-181067d3...</text></svg><line x1="353.36598844511434" x2="353.36598844511434" y1="12" y2="20" stroke="black" stroke-width="0.5" class="whereis"></line><svg x="0" y="0" width="353.36598844511434" height="100%"><text x="176.68299422255717" y="17" text-anchor="middle" font-family="sans-serif" font-size="6pt">3c6a1895-c2b8-4b37-8e3b-eeb2177a2ef5</text></svg></g></svg></svg>